<svg width="22" height="12" viewBox="0 0 22 12" fill="none" xmlns="http://www.w3.org/2000/svg">
  <path d="M20 0H2C0.9 0 0 0.9 0 2V10C0 11.1 0.9 12 2 12H20C21.1 12 22 11.1 22 10V2C22 0.9 21.1 0 20 0ZM9 7H7V9C7 9.55 6.55 10 6 10C5.45 10 5 9.55 5 9V7H3C2.45 7 2 6.55 2 6C2 5.45 2.45 5 3 5H5V3C5 2.45 5.45 2 6 2C6.55 2 7 2.45 7 3V5H9C9.55 5 10 5.45 10 6C10 6.55 9.55 7 9 7ZM14.5 9C13.67 9 13 8.33 13 7.5C13 6.67 13.67 6 14.5 6C15.33 6 16 6.67 16 7.5C16 8.33 15.33 9 14.5 9ZM18.5 6C17.67 6 17 5.33 17 4.5C17 3.67 17.67 3 18.5 3C19.33 3 20 3.67 20 4.5C20 5.33 19.33 6 18.5 6Z" fill="#939393"/>
</svg>
