<svg width="24" height="24" viewBox="0 0 24 24" fill="none" xmlns="http://www.w3.org/2000/svg">
  <path d="M12.9999 8.57001C12.2099 8.57001 11.5699 9.21001 11.5699 10C11.5699 10.79 12.2099 11.43 12.9999 11.43C13.7899 11.43 14.4299 10.79 14.4299 10C14.4299 9.21001 13.7899 8.57001 12.9999 8.57001Z" fill="#939393"/>
  <path d="M13.2099 3.00002C9.36995 2.89002 6.20995 5.87002 6.01995 9.64002L4.09995 12.2C3.84995 12.53 4.08995 13 4.49995 13H5.99995V16C5.99995 17.1 6.89995 18 7.99995 18H8.99995V20C8.99995 20.55 9.44995 21 9.99995 21H14.9999C15.5499 21 15.9999 20.55 15.9999 20V16.32C18.4399 15.16 20.0999 12.64 19.9999 9.74002C19.8599 6.12002 16.8199 3.11002 13.2099 3.00002ZM15.9999 10C15.9999 10.13 15.9899 10.26 15.9799 10.39L16.8099 11.05C16.8899 11.11 16.9099 11.21 16.8599 11.3L16.0599 12.69C16.0099 12.78 15.8999 12.81 15.8199 12.78L14.8299 12.38C14.6199 12.54 14.3999 12.67 14.1599 12.77L13.9999 13.83C13.9899 13.93 13.8999 14 13.7999 14H12.1999C12.0999 14 12.0199 13.93 11.9999 13.83L11.8499 12.77C11.5999 12.67 11.3799 12.54 11.1699 12.38L10.1799 12.78C10.0899 12.81 9.97995 12.78 9.92995 12.69L9.12995 11.3C9.07995 11.22 9.09995 11.11 9.17995 11.05L10.0199 10.39C10.0099 10.26 9.99995 10.13 9.99995 10C9.99995 9.87002 10.0199 9.73002 10.0399 9.61002L9.18995 8.95002C9.10995 8.89002 9.08995 8.79002 9.13995 8.69002L9.93995 7.31002C9.98995 7.22002 10.0899 7.19002 10.1799 7.22002L11.1799 7.62002C11.3799 7.47002 11.6099 7.33002 11.8499 7.23002L11.9999 6.17002C12.0199 6.07002 12.0999 6.00002 12.1999 6.00002H13.7999C13.8999 6.00002 13.9799 6.07002 13.9999 6.17002L14.1499 7.23002C14.3899 7.33002 14.6099 7.46002 14.8199 7.62002L15.8199 7.22002C15.9099 7.19002 16.0199 7.22002 16.0599 7.31002L16.8599 8.69002C16.9099 8.78002 16.8899 8.89002 16.8099 8.95002L15.9599 9.61002C15.9899 9.73002 15.9999 9.86002 15.9999 10Z" fill="#939393"/>
</svg>
