<svg width="24" height="24" viewBox="0 0 24 24" fill="none" xmlns="http://www.w3.org/2000/svg">
  <path d="M10 12C12.2091 12 14 10.2091 14 8C14 5.79086 12.2091 4 10 4C7.79086 4 6 5.79086 6 8C6 10.2091 7.79086 12 10 12Z" fill="#939393"/>
  <path d="M10.35 14.01C7.62 13.91 2 15.27 2 18V19C2 19.55 2.45 20 3 20H11.54C9.07 17.24 10.31 14.11 10.35 14.01Z" fill="#939393"/>
  <path d="M19.4301 18.02C19.9001 17.22 20.1301 16.25 19.9101 15.2C19.5701 13.56 18.1901 12.25 16.5301 12.04C13.9001 11.7 11.6801 13.91 12.0301 16.54C12.2501 18.2 13.5501 19.58 15.1901 19.92C16.2401 20.14 17.2101 19.91 18.0101 19.44L19.8701 21.3C20.2601 21.69 20.8901 21.69 21.2801 21.3C21.6701 20.91 21.6701 20.28 21.2801 19.89L19.4301 18.02ZM16.0001 18C14.9001 18 14.0001 17.1 14.0001 16C14.0001 14.9 14.9001 14 16.0001 14C17.1001 14 18.0001 14.9 18.0001 16C18.0001 17.1 17.1001 18 16.0001 18Z" fill="#939393"/>
</svg>
