<svg width="36" height="36" viewBox="0 0 36 36" fill="none" xmlns="http://www.w3.org/2000/svg">
  <path d="M18.8646 0.340504H18.72C10.2739 0.340504 3.39857 7.21157 3.39857 15.6619C3.39515 18.5941 4.23616 21.4653 5.82107 23.9323C7.18714 26.0569 7.86536 26.9612 9.09643 28.6026L9.22286 28.7709C9.525 29.1737 10.1625 29.4726 10.7829 29.5209V29.5294H23.4557L24.915 27.6426H10.9404C10.8496 27.6372 10.761 27.6131 10.68 27.5719L10.6018 27.4648C9.35679 25.8126 8.73214 24.9801 7.40357 22.9123C6.01323 20.748 5.27563 18.229 5.27893 15.6566C5.27893 8.24979 11.3089 2.21658 18.7371 2.21658H18.8818C21.2942 2.2167 23.6621 2.86603 25.7371 4.09645C27.8122 5.32688 29.5178 7.09305 30.6752 9.20969C31.8326 11.3263 32.399 13.7154 32.3151 16.1264C32.2312 18.5373 31.5 20.8813 30.1982 22.9123C28.8546 25.0026 26.1407 28.698 24.7479 30.5601C24.734 30.562 24.7199 30.562 24.7061 30.5601V30.5676H10.7196L12.1007 32.4426H24.81V32.4309C25.0907 32.4216 25.3657 32.3494 25.6148 32.2196C25.8639 32.0898 26.0806 31.9057 26.2489 31.6809C27.6557 29.8048 30.4039 26.0591 31.7764 23.9248C33.3613 21.4578 34.2024 18.5866 34.1989 15.6544C34.1989 7.21158 27.3279 0.340504 18.8646 0.340504Z" fill="url(#paint0_linear_2:367)"/>
  <path d="M23.3507 35.464H14.2843L12.9086 33.588H24.7478L23.3507 35.464Z" fill="url(#paint1_linear_2:367)"/>
  <path d="M23.3828 14.5362C23.7439 14.6282 24.1235 14.6187 24.4796 14.5087C24.8357 14.3987 25.1545 14.1926 25.4009 13.9129C25.6473 13.6333 25.8117 13.291 25.876 12.9239C25.9402 12.5568 25.9019 12.1791 25.7652 11.8324C25.6284 11.4856 25.3986 11.1834 25.101 10.959C24.8035 10.7346 24.4497 10.5967 24.0788 10.5605C23.7078 10.5244 23.3341 10.5913 22.9988 10.754C22.6635 10.9167 22.3796 11.1689 22.1785 11.4826L16.0146 10.2205C15.9705 9.78352 15.7792 9.37448 15.4723 9.06039C15.1653 8.74631 14.7607 8.54579 14.3249 8.49169C13.889 8.43759 13.4477 8.53313 13.0733 8.76264C12.6988 8.99215 12.4134 9.34203 12.2638 9.75496C12.1142 10.1679 12.1093 10.6194 12.2499 11.0355C12.3905 11.4516 12.6682 11.8076 13.0375 12.0452C13.4069 12.2828 13.846 12.3879 14.2829 12.3433C14.7198 12.2988 15.1287 12.1071 15.4424 11.7998L21.9342 13.1305L14.5413 19.1894C14.1865 19.031 13.7935 18.9781 13.4094 19.037C13.0253 19.0959 12.6662 19.2642 12.3752 19.5217C12.0841 19.7793 11.8734 20.1151 11.7681 20.4892C11.6628 20.8633 11.6674 21.2598 11.7814 21.6313C11.8954 22.0028 12.114 22.3337 12.411 22.5843C12.708 22.8349 13.0709 22.9948 13.4563 23.0447C13.8417 23.0946 14.2333 23.0325 14.5844 22.8659C14.9354 22.6992 15.2311 22.435 15.436 22.1048L22.7217 21.1062C22.9792 21.3498 23.3094 21.5024 23.6619 21.5404C24.0143 21.5784 24.3695 21.4999 24.6731 21.3168C24.9766 21.1338 25.2118 20.8562 25.3426 20.5267C25.4734 20.1973 25.4925 19.834 25.3972 19.4926C25.3018 19.1511 25.0971 18.8504 24.8145 18.6364C24.5319 18.4224 24.187 18.3069 23.8325 18.3076C23.478 18.3084 23.1335 18.4253 22.8518 18.6405C22.5701 18.8556 22.3667 19.1572 22.2728 19.499L15.7499 20.3958L23.0431 14.4151C23.1525 14.4656 23.2661 14.5061 23.3828 14.5362V14.5362Z" fill="#337255"/>
  <defs>
    <linearGradient id="paint0_linear_2:367" x1="3.40286" y1="16.3937" x2="34.1989" y2="16.3937" gradientUnits="userSpaceOnUse">
      <stop stop-color="#26A96C"/>
      <stop offset="1" stop-color="#387D7A"/>
    </linearGradient>
    <linearGradient id="paint1_linear_2:367" x1="1439.3" y1="638.152" x2="2747.54" y2="638.152" gradientUnits="userSpaceOnUse">
      <stop stop-color="#26A96C"/>
      <stop offset="1" stop-color="#387D7A"/>
    </linearGradient>
  </defs>
</svg>
